<?xml version="1.0" encoding="utf-8"?>
<!-- Generator: Adobe Illustrator 15.1.0, SVG Export Plug-In . SVG Version: 6.00 Build 0)  -->
<!DOCTYPE svg PUBLIC "-//W3C//DTD SVG 1.1//EN" "http://www.w3.org/Graphics/SVG/1.1/DTD/svg11.dtd">
<svg version="1.1" id="Ebene_1" xmlns="http://www.w3.org/2000/svg" xmlns:xlink="http://www.w3.org/1999/xlink" x="0px" y="0px"
	 width="595.28px" height="841.89px" viewBox="0 0 595.28 841.89" enable-background="new 0 0 595.28 841.89" xml:space="preserve">
<g>
	<g>
		<path fill-rule="evenodd" clip-rule="evenodd" fill="#FFFFFF" d="M41.625,171.034c0.646-1.069,2.828-3.92,0.493-4.931
			c-2.954,0.223-0.931,4.591-0.493,5.917c-3.067,1.418-2.503-2.421-4.438-2.466c-1.53-0.035-4.665,5.824-8.876,1.973
			c4.793,0.027,4.735-4.798,5.424-8.876c-2.291,1.241-8.46,1.944-8.876-1.479c7.655,2.665,7.369-6.277,12.82-7.396
			c-1.009-2.469-2.236-4.08-1.972-6.41c0.631-5.573,7.293-4.834,11.834-6.411c-2.44,2.318-4.961,4.104-4.438,9.369
			c0.867,8.719,16.562,13.867,15.286,28.106c-0.86,9.589-10.096,15.816-15.286,22.683c-3.132,4.144-6.575,8.09-7.396,13.807
			c-0.688,4.782,0.072,12.271,3.452,13.313c6.522,2.013,10.252-4.957,12.328-8.876c-1.414-4.594-2.715-9.902-0.493-13.807
			c1.146-2.014,4.471-2.921,6.41-4.438c8.303-6.493,12.034-16.038,13.807-29.093c-1.612-1.347-6.583,0.666-6.41-2.466
			c2.213-0.087,3.577-1.025,4.931-1.972c-0.021-2.445,0.383-5.313-1.479-5.917c-1.678,0.567-2.391,3.08-4.931,3.452
			c-2.205,0.322-5.307-0.51-5.917-2.959c5.274,0.776,7.577-3.847,6.41-7.889c-3.53,0.721-8.689,1.047-8.875-2.959
			c2.029,0.997,4.947,0.507,5.424-1.479c-0.937-4.602-3.293-11.366,2.465-12.328c-3.57-5.342-4.521,4.181-7.396,5.424
			c-4.042,1.747-7.799-2.387-6.903-7.396c1.371,1.588,2.012,3.905,5.424,3.452c3.005-2.059,0.571-11.737,6.41-9.369
			c-0.101-1.543,0.333-3.62-0.493-4.438c-3.441,6.659-14.121,4.714-13.313-4.438c2.131,1.436,1.881,4.381,4.438,4.438
			c2.656,0.059,4.473-3.417,3.452-5.917c-1.093-2.676-3.714-1.63-6.41-1.972c0.379-3.649,4.856-4.115,7.889-2.465
			c4.526-4.607-2.782-7.328-3.945-10.848c1.992,0.802,3.796,1.792,6.411,1.972c1.437-0.681-2.917-2.277-1.479-2.958
			c2.18,0.285,3.581,1.351,4.931,2.465c2.649-1.953,2.476-6.729,4.931-8.875c-0.239,2.705,0.345,4.586,1.479,5.917
			c2.464-3.527,6.478-9.39,11.834-6.903c-1.307,1.323-3.068,2.192-2.466,5.424c8.979,0.719,13.435,5.96,19.231,9.862
			c3.138-0.179,4.492-0.625,6.903,0.493c3.732,4.775,0.101,11.693-2.958,15.286c3.987,1.842,6.808-1.733,9.369-2.958
			c-1.037,4.552-4.615,6.562-9.369,7.396c1.16,4.088-5.559,7.711-1.479,11.834c-3.003,0.044-3.262-2.655-3.945-4.931
			c-2.271-0.463-0.946,2.67-1.972,3.452c0.592-6.016-5.357-5.491-5.917-10.355c-2.01,0.291-3.161,1.441-3.452,3.452
			c0.253,3.211,5.68,2.141,7.396,2.465c-0.951,1.679-2.927,2.333-5.424,2.466c2.588,7.674,14.615,5.182,19.724,1.479
			c-0.728,3.052-4.12,3.441-4.931,6.411c2.951,2.607,9.659,1.43,11.834-0.986c1.335,2.333,5.352-2.579,7.89-4.438
			c2.795-2.048,5.472-3.353,7.397-4.931c5.188-4.255,8.666-9.391,12.327-12.327c0-1.479,0-2.958,0-4.438
			c-4.06,1.032-7.088,0.012-9.862-1.479c-4.005,0.268-3.04,5.506-7.396,5.424c1.922-2.544-0.448-1.646-1.479-3.452
			c1.188,0.202,1.072-0.9,2.465-0.493c4.07-5.81,7.469-11.365,16.766-12.82c0.152-1.796-0.079-3.209-0.493-4.438
			c1.739-1.955,5.89-1.566,8.876-0.986c-0.014,2.973-0.154,6.071,0.493,8.383c6.071,3.239,12.075,6.802,11.834,14.3
			c-0.247,7.673-7.198,12.599-12.327,16.272c-0.45,5.208,0.203,9.688,0,15.779c5.368,3.336,13.056,8.933,13.807,16.765
			c0.849,8.858-5.823,13.254-13.807,14.3c0.075,2.226-0.618,5.22,1.479,5.424c-0.141,4.488-1.205,6.4-0.493,10.355
			c5.219,2.408,12.453,5.209,10.355,13.313c-3.122-2.302-5.149-5.699-10.355-5.917c-2.073,1.378-0.49,6.412-0.985,9.369
			c-2.063,1.035-6.202,0.435-8.383,0c-0.391-1.857,0.249-5.657,0-8.875c-7.058-4.448-9.101-13.911-18.245-16.272
			c-0.922-1.708-2.073-3.187-2.958-4.931c-2.029,1.258-3.286,3.289-6.411,3.452c-0.594-1.768,3.27-2.84,1.973-6.903
			c-1.535-0.37-2.961,3.603-6.411,2.958c0.148-1.825,2.17-1.774,1.479-4.438c-0.066-1.906-2-1.945-2.465-3.452
			c-4.053,6.808-8.549,15.76-18.245,15.286c-0.583,3.362-1.211,6.678-2.465,9.369c3.036,5.347,14.418,2.347,18.245,6.903
			c3.806,3.465,3.698,13.122,2.958,18.245c0.564,1.892,2.835,0.609,3.452,1.479c-0.627,2.496-3.617,2.629-5.917,3.452
			c-3.793,7.054-4.949,16.747-7.889,24.655c3.976,1.448,9.533,1.315,11.834,4.438c2.004-1.481,5.232-0.922,7.396,0
			c1.115,4.424,4.068,9.932,0.986,14.3c-1.71-0.755-1.787-3.144-4.438-2.958c-0.105,1.243-0.277,5.269-2.958,5.424
			c-0.411-1.89-1.613-2.99-2.958-3.945c-2.08,1.372-2.156,4.747-5.424,4.931c0.781-2.918-2.589-1.683-3.452-2.958
			c0.617-6.205-4.973-6.204-9.369-7.396c-0.684-3.09,1.065-5.102,0.493-9.369c-1.494,0.643-2.199,2.074-3.945,2.465
			c-1.722-0.086-2.481-1.134-2.958-2.465c-1.922-0.381-2.557,1.823-3.945,0.493c-0.182-4.399,3.536-6.371,2.465-8.876
			c3.789,0.716,5.125-3.265,3.945-5.917c-2.025,1.618-5.96,3.94-8.383,0.986c0.994-1.065,3.067-0.767,3.945-2.958
			c-0.074-3.361-0.423-6.998,2.466-7.396c-0.129-2.172-1.701-2.901-1.479-5.424c-3.435,2.831-6.922,7.224-12.328,10.848
			c-5.508,3.693-11.788,6.78-15.286,11.341c-2.312,3.014-6.766,12.455-2.466,17.258c7.322-0.472,16.045-1.855,17.259,4.931
			c-2.305,3.283-0.292,10.884-4.931,11.834c-0.405-1.19,0.66-5.176-1.479-5.917c-0.556,3.06-1.59,5.642-4.438,6.41
			c-0.101-1.543,0.333-3.62-0.493-4.438c0.143,2.298-0.891,5.87-2.958,7.396c-1.566-1.228-0.647-4.941-2.466-5.917
			c-1.972-0.164-2.737,0.879-4.931,0.493c-2.131-2.157-6.604-2.962-7.396-6.41c-0.617-2.68,1.749-5.032,0.986-7.89
			c-0.64-2.346-5.187-1.037-4.438-3.452c-2.501-0.6-2.88,2.677-4.438,1.479c0.615-2.837,1.494-5.41,2.958-7.396
			c3.44-0.999,6.8-2.076,6.41-6.903c-2.162-1.29-7.386,0.483-7.889-2.466c3.604-0.011,6.471-0.76,7.889-2.958
			c-2.292-0.831-5.508-0.737-6.903-2.465c1.372-1.3,3.488-0.811,5.424-1.479c7.071-2.441,16.145-10.188,14.3-20.217
			c-3.822,3.081-8.006,5.801-14.3,6.41c-0.795,1.342-0.316,3.957-1.479,4.931c-3.922,0.844-7.23,2.303-6.903,7.396
			c-1.234-1.242-1.937,0.566-3.452,0.493c2.199-2.516,0.847-5.638,0-8.875c0.723-1.504,1.223-2.519,2.465-4.438
			c0.407-0.628,2.928-3.082,2.959-3.452c0.042-0.499-2.118-2.568-2.466-3.452c-1.189-3.017,0.021-8.725-0.493-12.327
			c-0.719-5.033-5.473-7.182-4.438-14.3c0.295-2.03,1.384-3.663,3.452-5.917c0.23,3.808-0.525,9.987,3.452,11.341
			c1.558-0.093,1.144-3.643,0.493-4.438c0.106-1.915-2.977-0.64-2.959-2.465c1.982,0.173,3.608-0.008,3.945-1.479
			c-0.13-3.157-2.811-3.763-5.424-4.438c1.296-2.693,5.754-0.766,7.89,0c-1.916-8.648,7.301-12.755,11.341-6.903
			c7.364-3.959,5.911-16.845-0.493-20.71C46.648,168.257,44.991,172.468,41.625,171.034z M154.051,125.669
			c-0.507-3.109-0.98-6.252-3.945-6.903C150.16,122.329,151.919,124.184,154.051,125.669z M93.4,124.683
			c2.247-0.652,4.324,0.192,5.917,1.479c-0.358-1.508,0.851-1.45,0.493-2.958c-1.53-0.051-1.407,1.551-3.452,0.986
			c0-0.986,0-1.972,0-2.958c-0.98-0.006-0.627-1.346-1.973-0.986C94.345,122.011,93.62,123.094,93.4,124.683z M150.106,132.079
			c2.437-0.523,3.082-2.835,3.452-5.424C150.245,126.3,150.415,129.428,150.106,132.079z M92.907,130.6
			c1.944,0.136,1.508-2.108,3.452-1.972c-0.005,1.31,0.187,2.816-0.493,3.452c1.426-0.218,2.248-1.04,2.465-2.465
			C96.3,127.883,94.12,128.088,92.907,130.6z M134.328,154.761c-1.64-3.875,0.011-7.639,0-10.355
			C130.908,145.701,130.083,153.7,134.328,154.761z M131.369,161.665c-3.711,1.579-7.1-2.742-9.862-1.973
			c1.232,2.384,3.608,3.625,4.931,5.917c-4.506,2.146-9.156-1.856-12.821-0.493c5.507,8.299,10.994,16.62,20.71,20.71
			c1.951-0.514,2.489-2.442,4.931-2.466c-0.309-9.127,0.513-14.244,0.493-22.682c-1.827-1.46-3.471-3.104-4.931-4.931
			c-2.013,2.113-4.694,0.015-7.397,0C127.581,158.878,130.422,159.324,131.369,161.665z M149.121,179.909
			c9.408,0.84,7.171-13.294,0.493-13.807C149.424,169.579,148.919,174.672,149.121,179.909z M42.611,194.702
			c0.719-2.873,0.98-7.741-1.972-8.382C40.501,188.955,39.748,193.752,42.611,194.702z"/>
	</g>
	<g>
		<path fill-rule="evenodd" clip-rule="evenodd" fill="#FFFFFF" d="M40.639,186.32c2.953,0.641,2.691,5.509,1.972,8.382
			C39.748,193.752,40.501,188.955,40.639,186.32z"/>
	</g>
</g>
</svg>
