<?xml version="1.0" encoding="UTF-8" standalone="no"?>
<!-- Generator: Adobe Illustrator 19.2.1, SVG Export Plug-In . SVG Version: 6.00 Build 0)  -->
<svg id="Ebene_1" xmlns="http://www.w3.org/2000/svg" xml:space="preserve" viewBox="0 0 25.1 36.3" baseProfile="tiny" version="1.2" y="0px" x="0px" xmlns:xlink="http://www.w3.org/1999/xlink">
		<path d="m3.1 13.8c0.1-0.2 0.5-0.7 0.1-0.9-0.6 0.1-0.2 0.9-0.1 1.1-0.6 0.3-0.5-0.4-0.8-0.4s-0.8 1.1-1.6 0.4c0.9 0 0.9-0.9 1-1.6-0.4 0.2-1.5 0.4-1.6-0.3 1.4 0.5 1.3-1.1 2.3-1.3-0.3-0.5-0.5-0.8-0.4-1.3 0.1-1 1.3-0.9 2.2-1.2-0.4 0.4-0.9 0.7-0.8 1.7 0.2 1.6 3 2.5 2.8 5.1-0.2 1.7-1.8 2.9-2.8 4.1-0.6 0.8-1.2 1.5-1.3 2.5-0.1 0.9 0 2.2 0.6 2.4 1.2 0.4 1.9-0.9 2.2-1.6-0.3-0.8-0.5-1.8-0.1-2.5 0.2-0.4 0.8-0.5 1.2-0.8 1.5-1.2 2.2-2.9 2.5-5.3-0.3-0.2-1.2 0.1-1.2-0.4 0.4 0 0.7-0.2 0.9-0.4 0-0.4 0.1-1-0.3-1.1-0.3 0.1-0.4 0.6-0.9 0.6-0.4 0.1-1-0.1-1.1-0.5 1 0.1 1.4-0.7 1.2-1.4-0.6 0.1-1.6 0.2-1.6-0.5 0.4 0.2 0.9 0.1 1-0.3-0.2-0.7-0.6-2 0.4-2.2-0.6-1-0.8 0.8-1.3 1-0.8 0.4-1.5-0.4-1.3-1.3 0.2 0.3 0.4 0.7 1 0.6 0.5-0.4 0.1-2.1 1.2-1.7 0-0.3 0.1-0.7-0.1-0.8-0.7 1.2-2.6 0.9-2.5-0.8 0.4 0.3 0.4 0.8 0.9 0.8s0.8-0.6 0.6-1.1-0.7-0.3-1.2-0.3c0.1-0.7 0.9-0.7 1.4-0.4 0.8-0.8-0.5-1.3-0.7-2 0.4 0.1 0.7 0.3 1.2 0.3 0.3-0.1-0.5-0.4-0.3-0.5 0.4 0.1 0.7 0.2 0.9 0.4 0.5-0.4 0.5-1.2 0.9-1.6 0 0.5 0.1 0.8 0.3 1.1 0.4-0.6 1.2-1.7 2.2-1.3-0.2 0.2-0.6 0.4-0.4 1 1.6 0.1 2.4 1.1 3.5 1.8 0.6 0 0.8-0.1 1.3 0.1 0.7 0.9 0 2.1-0.5 2.8 0.7 0.3 1.2-0.3 1.7-0.5-0.2 0.8-0.8 1.2-1.7 1.3 0.2 0.7-1 1.4-0.3 2.2-0.5 0-0.6-0.5-0.7-0.9-0.4-0.1-0.2 0.5-0.4 0.6 0.1-1.1-1-1-1.1-1.9-0.4 0.1-0.6 0.3-0.6 0.6 0 0.6 1 0.4 1.3 0.4-0.2 0.3-0.5 0.4-1 0.4 0.5 1.4 2.7 0.9 3.6 0.3-0.2 0.6-0.8 0.7-1 1.2 0.5 0.5 1.8 0.3 2.2-0.2 0.2 0.4 1-0.5 1.4-0.8 0.5-0.4 1-0.6 1.3-0.9 0.9-0.8 1.6-1.7 2.2-2.2v-0.8c-0.7 0.2-1.3 0-1.8-0.3-0.7 0-0.6 1-1.3 1 0.3-0.5-0.1-0.3-0.3-0.6 0.2 0 0.2-0.2 0.4-0.1 0.7-1.1 1.4-2.1 3.1-2.3 0-0.3 0-0.6-0.1-0.8 0.3-0.4 1.1-0.3 1.6-0.2 0 0.5 0 1.1 0.1 1.5 1.1 0.6 2.2 1.2 2.2 2.6s-1.3 2.3-2.2 3c-0.1 0.9 0 1.8 0 2.9 1 0.6 2.4 1.6 2.5 3.1 0.2 1.6-1.1 2.4-2.5 2.6 0 0.4-0.1 0.9 0.3 1 0 0.8-0.2 1.2-0.1 1.9 0.9 0.4 2.3 0.9 1.9 2.4-0.6-0.4-0.9-1-1.9-1.1-0.4 0.3-0.1 1.2-0.2 1.7-0.4 0.2-1.1 0.1-1.5 0-0.1-0.3 0-1 0-1.6-1.3-0.8-1.7-2.5-3.3-3-0.2-0.3-0.4-0.6-0.5-0.9-0.4 0.2-0.6 0.6-1.2 0.6-0.1-0.3 0.6-0.5 0.4-1.3-0.3-0.1-0.5 0.7-1.2 0.5 0-0.3 0.4-0.3 0.3-0.8 0-0.3-0.4-0.4-0.4-0.6-0.7 1.2-1.6 2.9-3.3 2.8-0.1 0.6-0.2 1.2-0.4 1.7 0.6 1 2.6 0.4 3.3 1.3 0.7 0.6 0.7 2.4 0.5 3.3 0.1 0.3 0.5 0.1 0.6 0.3-0.1 0.5-0.7 0.5-1.1 0.6-0.7 1.3-0.9 3-1.4 4.5 0.7 0.3 1.7 0.2 2.2 0.8 0.4-0.3 1-0.2 1.3 0 0.2 0.8 0.7 1.8 0.2 2.6-0.3-0.1-0.3-0.6-0.8-0.5 0 0.2-0.1 1-0.5 1-0.1-0.3-0.3-0.5-0.5-0.7-0.4 0.2-0.4 0.9-1 0.9 0.1-0.5-0.5-0.3-0.6-0.5 0.1-1.1-0.9-1.1-1.7-1.3-0.1-0.6 0.2-0.9 0.1-1.7-0.3 0.1-0.4 0.4-0.7 0.4s-0.5-0.2-0.5-0.4c-0.3-0.1-0.5 0.3-0.7 0.1 0-0.8 0.6-1.2 0.4-1.6 0.7 0.1 0.9-0.6 0.7-1.1-0.4 0.3-1.1 0.7-1.5 0.2 0.2-0.2 0.6-0.1 0.7-0.5 0-0.6-0.1-1.3 0.4-1.3 0-0.4-0.3-0.5-0.3-1-0.6 0.5-1.3 1.3-2.2 2-1 0.7-2.1 1.2-2.8 2.1-0.6 0.2-1.4 1.9-0.7 2.8 1.3-0.1 2.9-0.3 3.1 0.9-0.4 0.6-0.1 2-0.9 2.2-0.1-0.2 0.1-0.9-0.3-1.1-0.1 0.6-0.3 1-0.8 1.2 0-0.3 0.1-0.7-0.1-0.8 0 0.4-0.2 1.1-0.5 1.3-0.3-0.2-0.1-0.9-0.4-1.1-0.4 0-0.5 0.2-0.9 0.1-0.4-0.4-1.2-0.5-1.3-1.2-0.1-0.5 0.3-0.9 0.2-1.4-0.1-0.4-0.9-0.2-0.8-0.6-0.5-0.1-0.5 0.5-0.8 0.3 0.1-0.5 0.3-1 0.5-1.3 0.6-0.2 1.2-0.4 1.2-1.3-0.4-0.2-1.3 0.1-1.4-0.4 0.7 0 1.2-0.1 1.4-0.5-0.4-0.2-1-0.1-1.3-0.4 0.2-0.2 0.6-0.1 1-0.3 1.3-0.4 2.9-1.9 2.6-3.7-0.7 0.6-1.5 1.1-2.6 1.2-0.1 0.2-0.1 0.7-0.3 0.9-0.7 0.2-1.3 0.4-1.3 1.3-0.2-0.2-0.4 0.1-0.6 0.1 0.4-0.5 0.2-1 0-1.6 0.1-0.3 0.2-0.5 0.4-0.8 0.1-0.1 0.5-0.6 0.5-0.6 0-0.1-0.4-0.5-0.4-0.6-0.2-0.5 0-1.6-0.1-2.2-0.1-0.9-1-1.3-0.8-2.6 0.1-0.4 0.3-0.7 0.6-1.1 0 0.7-0.1 1.8 0.6 2.1 0.3 0 0.2-0.7 0.1-0.8 0-0.3-0.5-0.1-0.5-0.4 0.4 0 0.7 0 0.7-0.3 0-0.6-0.5-0.7-1-0.8 0.2-0.5 1-0.1 1.4 0-0.3-1.6 1.3-2.3 2.1-1.3 1.4-1 1.2-3.3 0-4-0.2 0.3-0.5 1.1-1.1 0.8zm20.4-8.2c-0.1-0.6-0.2-1.1-0.7-1.3 0 0.7 0.3 1 0.7 1.3zm-11-0.2c0.4-0.1 0.8 0 1.1 0.3-0.1-0.3 0.2-0.3 0.1-0.5-0.3 0-0.3 0.3-0.6 0.2v-0.5c-0.2 0-0.1-0.2-0.4-0.2-0.1 0.2-0.2 0.4-0.2 0.7zm10.3 1.4c0.4-0.1 0.6-0.5 0.6-1-0.6-0.1-0.6 0.5-0.6 1zm-10.4-0.3c0.4 0 0.3-0.4 0.6-0.4 0 0.2 0 0.5-0.1 0.6 0.3 0 0.4-0.2 0.4-0.4-0.3-0.3-0.7-0.3-0.9 0.2zm7.5 4.4c-0.3-0.7 0-1.4 0-1.9-0.6 0.2-0.8 1.7 0 1.9zm-0.5 1.2c-0.7 0.3-1.3-0.5-1.8-0.4 0.2 0.4 0.7 0.7 0.9 1.1-0.8 0.4-1.7-0.3-2.3-0.1 1 1.5 2 3 3.8 3.8 0.4-0.1 0.5-0.4 0.9-0.4-0.1-1.7 0.1-2.6 0.1-4.1l-0.9-0.9c-0.4 0.4-0.9 0-1.3 0-0.1 0.5 0.4 0.6 0.6 1zm3.2 3.4c1.7 0.2 1.3-2.4 0.1-2.5 0 0.6-0.1 1.5-0.1 2.5zm-19.4 2.7c0.1-0.5 0.2-1.4-0.4-1.5 0 0.4-0.1 1.3 0.4 1.5z" fill="#fff"/>
		<path d="m2.9 16.6c0.5 0.1 0.5 1 0.4 1.5-0.6-0.1-0.5-1-0.4-1.5z" fill="#fff"/>
</svg>
