<?xml version="1.0" encoding="utf-8"?>
<!-- Generator: Adobe Illustrator 16.0.3, SVG Export Plug-In . SVG Version: 6.00 Build 0)  -->
<svg version="1.2" baseProfile="tiny" id="Ebene_1" xmlns="http://www.w3.org/2000/svg" xmlns:xlink="http://www.w3.org/1999/xlink"
	 x="0px" y="0px" width="24px" height="24px" viewBox="0 0 24 24" xml:space="preserve">
<g id="icomoon-ignore">
</g>
<path fill="#FFFFFF" d="M21.264,1.414c0.379,0,0.693,0.125,0.945,0.377s0.377,0.567,0.377,0.946c0,0.372-0.127,0.686-0.382,0.941
	L13.871,12l8.333,8.322c0.255,0.254,0.382,0.568,0.382,0.941c0,0.379-0.125,0.692-0.377,0.944s-0.566,0.377-0.945,0.377
	c-0.373,0-0.687-0.127-0.94-0.382L12,13.871l-8.322,8.333c-0.255,0.255-0.568,0.382-0.941,0.382c-0.379,0-0.694-0.125-0.946-0.377
	s-0.377-0.566-0.377-0.945c0-0.373,0.127-0.687,0.382-0.941L10.129,12L1.796,3.678C1.542,3.423,1.414,3.11,1.414,2.737
	c0-0.379,0.125-0.694,0.377-0.946s0.566-0.377,0.946-0.377c0.372,0,0.686,0.127,0.941,0.382L12,10.129l8.322-8.333
	C20.576,1.542,20.891,1.414,21.264,1.414z"/>
</svg>
