<?xml version="1.0" encoding="UTF-8" standalone="no"?>
<!-- Generator: Adobe Illustrator 15.1.0, SVG Export Plug-In . SVG Version: 6.00 Build 0)  -->
<svg id="Ebene_1" xmlns="http://www.w3.org/2000/svg" width="32px" xml:space="preserve" height="32px" viewBox="0 0 32 32" baseProfile="tiny" version="1.2" y="0px" x="0px" overflow="inherit" xmlns:xlink="http://www.w3.org/1999/xlink">
<g id="XS1x60_1_">
		<path d="m21.283 10.291c1.863 0.237 3.556 0.459 5.539 0.764 1.494 0.229 4.495 0.136 4.648 1.591 0.105 1.01-0.913 1.597-1.528 2.165-1.949 1.799-3.645 3.682-5.476 5.476 0.39 2.184 0.857 4.874 1.273 7.321 0.213 1.25 0.686 2.948-0.637 3.184-0.856 0.152-1.729-0.601-2.42-0.956-2.276-1.17-4.438-2.289-6.621-3.437-2.521 1.198-4.26 2.157-6.749 3.437-0.886 0.456-3.039 1.852-3.375 0-0.137-0.756 0.235-1.593 0.382-2.419 0.287-1.607 0.47-3.104 0.764-4.774 0.135-0.765 0.526-1.747 0.446-2.292-0.071-0.482-1.367-1.495-1.782-1.91-1.197-1.196-2.5-2.461-3.756-3.629-0.583-0.542-1.555-1.277-1.465-2.165 0.146-1.438 3.194-1.368 4.648-1.591 2.038-0.313 3.687-0.521 5.475-0.764 0.992-1.803 2.397-4.524 3.502-6.812 0.447-0.928 0.883-2.909 2.482-2.101 0.563 0.284 0.954 1.503 1.274 2.165 1.092 2.248 2.349 4.721 3.376 6.747zm-7.13-1.337c-0.547 1.088-1.001 2.715-1.783 3.375-0.459 0.388-1.343 0.394-2.101 0.509-1.98 0.302-3.841 0.546-5.73 0.828 0.231 0.586 0.86 0.924 1.337 1.4l2.865 2.865c0.476 0.477 1.225 0.972 1.336 1.528 0.124 0.614-0.15 1.353-0.254 1.974-0.338 2.019-0.721 3.971-0.892 5.857 1.675-0.91 3.393-1.844 5.157-2.737 0.581-0.295 1.294-0.81 1.846-0.828 0.57-0.019 1.311 0.456 1.912 0.764 1.841 0.946 3.551 1.947 5.283 2.802-0.279-1.955-0.645-3.888-0.955-5.793-0.106-0.656-0.38-1.421-0.255-2.038 0.116-0.568 0.891-1.081 1.4-1.592 1.229-1.229 2.389-2.415 3.566-3.502 0.203-0.188 0.614-0.366 0.509-0.7-1.276-0.207-2.524-0.364-3.947-0.573-0.952-0.14-3.137-0.178-3.82-0.7-0.288-0.22-0.675-1.099-0.954-1.655-0.869-1.729-1.896-4.12-2.739-5.411-0.467 1.091-1.087 2.245-1.781 3.627z" fill-rule="evenodd"/>
			<path d="m17.691 20.229c-0.672 0-1.02-0.252-1.128-0.826-0.443 0.586-0.875 0.826-1.438 0.826-0.66 0-1.056-0.527-1.056-1.426 0-0.995 0.372-1.979 0.983-2.627 0.3-0.324 0.731-0.516 1.163-0.516 0.384 0 0.708 0.132 0.96 0.408l0.06-0.132c0.048-0.096 0.096-0.132 0.192-0.132h0.695c0.084 0 0.144 0.048 0.144 0.12l-0.012 0.12-0.54 2.566c-0.023 0.072-0.035 0.229-0.035 0.312 0 0.252 0.144 0.359 0.479 0.359 0.936 0 1.715-1.198 1.715-2.662 0-1.739-1.199-2.782-3.166-2.782-1.319 0-2.351 0.408-3.166 1.235-0.852 0.875-1.38 2.218-1.38 3.526 0 1.042 0.348 1.919 1.008 2.53 0.623 0.576 1.451 0.84 2.662 0.84 1.212 0 2.447-0.275 3.442-0.768 0.107-0.061 0.168-0.072 0.216-0.072s0.096 0.035 0.108 0.072l0.203 0.539c0.036 0.107 0.048 0.107 0.048 0.145 0 0.059-0.06 0.119-0.18 0.191-0.791 0.516-2.398 0.875-3.909 0.875-1.571 0-2.675-0.359-3.479-1.139s-1.271-1.967-1.271-3.25c0-1.559 0.672-3.13 1.764-4.174 1.043-0.995 2.446-1.535 3.993-1.535 1.355 0 2.555 0.432 3.263 1.151 0.6 0.624 0.959 1.56 0.959 2.531 0.001 2.088-1.438 3.695-3.297 3.695zm-1.391-3.705c-0.252 0-0.443 0.144-0.611 0.443-0.229 0.42-0.432 1.295-0.432 1.847 0 0.299 0.12 0.467 0.336 0.467 0.252 0 0.552-0.18 0.743-0.419 0.132-0.168 0.216-0.384 0.288-0.707l0.288-1.344c-0.252-0.215-0.396-0.287-0.612-0.287z"/>
</g>
</svg>
