<?xml version="1.0" encoding="utf-8"?> <!-- Generator: IcoMoon.io --> <!DOCTYPE svg PUBLIC "-//W3C//DTD SVG 1.1//EN" "http://www.w3.org/Graphics/SVG/1.1/DTD/svg11.dtd"> <svg fill="#000000" xmlns:xlink="http://www.w3.org/1999/xlink" xmlns="http://www.w3.org/2000/svg" width="32" height="32" viewBox="0 0 32 32"><g><path d="M 31.715,28.953c 0.381,0.381, 0.381,0.999,0,1.381l-1.381,1.381 c-0.382,0.381-1,0.381-1.381,0l-9.668-9.668c-0.105-0.105-0.175-0.229-0.222-0.361C 17.080,23.135, 14.645,24, 12,24 C 5.373,24,0,18.627,0,12C0,5.373, 5.373,0, 12,0c 6.627,0, 12,5.373, 12,12c0,2.645-0.865,5.080-2.314,7.063 c 0.132,0.047, 0.256,0.116, 0.361,0.222L 31.715,28.953z M 12,4c-4.418,0-8,3.582-8,8c0,4.418, 3.582,8, 8,8s 8-3.582, 8-8 C 20,7.582, 16.418,4, 12,4z"></path></g></svg>
